<?xml version="1.0" standalone="no"?>
<!DOCTYPE svg PUBLIC "-//W3C//DTD SVG 20010904//EN"
 "http://www.w3.org/TR/2001/REC-SVG-20010904/DTD/svg10.dtd">
<svg version="1.0" xmlns="http://www.w3.org/2000/svg"
 width="960.000000pt" height="960.000000pt" viewBox="0 0 960.000000 960.000000"
 preserveAspectRatio="xMidYMid meet">

<g transform="translate(0.000000,960.000000) scale(0.100000,-0.100000)"
fill="#000000" stroke="none">
<path d="M4580 9519 c-512 -21 -1044 -134 -1525 -323 -292 -115 -720 -347
-987 -536 -373 -263 -758 -636 -1038 -1005 -525 -690 -845 -1501 -936 -2368
-9 -92 -15 -170 -12 -173 3 -3 574 -239 1269 -525 l1263 -521 115 60 c188 97
395 152 580 152 l86 1 575 836 575 835 7 121 c15 270 67 466 189 712 93 189
177 303 339 465 161 161 275 244 465 340 285 142 545 199 865 187 271 -10 471
-59 715 -177 502 -243 872 -718 979 -1260 176 -892 -336 -1777 -1195 -2063
-147 -49 -284 -75 -461 -88 l-153 -10 -785 -562 c-432 -308 -802 -574 -822
-590 -38 -28 -38 -29 -38 -100 0 -161 -55 -378 -135 -539 -189 -377 -538 -639
-950 -713 -132 -24 -344 -22 -472 4 -276 57 -485 169 -678 365 -163 165 -252
310 -323 526 l-37 114 -270 112 c-663 275 -1472 607 -1488 612 -24 6 -20 -11
54 -215 194 -533 481 -1025 849 -1459 125 -146 408 -427 550 -545 646 -539
1381 -885 2195 -1034 299 -55 462 -69 835 -69 352 -1 449 5 720 45 1162 172
2237 790 2975 1709 999 1244 1304 2898 814 4416 -348 1081 -1084 2007 -2063
2596 -791 476 -1708 707 -2646 667z"/>
<path d="M6176 7170 c-192 -31 -385 -111 -546 -229 -77 -56 -214 -198 -268
-278 -470 -693 -116 -1628 697 -1840 119 -31 335 -42 462 -23 438 63 816 383
959 808 107 320 69 687 -102 977 -165 279 -437 483 -752 561 -114 28 -344 40
-450 24z m384 -311 c209 -48 413 -191 534 -374 171 -256 199 -596 72 -869
-125 -271 -367 -461 -656 -516 -94 -18 -270 -13 -366 10 -297 70 -546 295
-645 583 -40 115 -53 212 -46 342 12 234 102 430 274 597 146 142 327 226 543
252 62 7 203 -5 290 -25z"/>
<path d="M3174 3966 c-112 -22 -191 -47 -174 -56 8 -4 143 -61 300 -125 157
-64 314 -132 350 -151 181 -94 313 -261 372 -471 29 -105 29 -265 -1 -376 -58
-218 -232 -418 -437 -501 -80 -33 -198 -56 -284 -56 -125 0 -209 25 -539 162
-172 71 -315 127 -318 124 -11 -11 94 -163 162 -234 86 -91 160 -150 258 -202
467 -252 1056 -93 1335 360 101 163 145 328 145 535 0 119 -5 155 -27 240 -47
178 -128 325 -255 458 -127 133 -286 225 -471 274 -118 31 -309 39 -416 19z"/>
</g>
</svg>
